<svg width="96" height="96" viewBox="0 0 96 96" fill="none" xmlns="http://www.w3.org/2000/svg">
  <path
    d="M24 70L46.9325 28.0222C48.907 24.3655 53.9208 24.366 55.8949 28.0232L72 58.1429"
    stroke="url(#paint0_linear)"
    stroke-width="6"
    stroke-linecap="round"
    stroke-linejoin="round"
  />
  <path
    d="M36 58.5L43.3565 45.1998C45.2488 41.6697 50.1807 41.6745 52.0665 45.2095L60 60"
    stroke="url(#paint1_linear)"
    stroke-width="4"
    stroke-linecap="round"
    stroke-linejoin="round"
  />
  <path
    d="M63.5 26C63.5 28.4853 61.4853 30.5 59 30.5C56.5147 30.5 54.5 28.4853 54.5 26C54.5 23.5147 56.5147 21.5 59 21.5C61.4853 21.5 63.5 23.5147 63.5 26Z"
    fill="url(#paint2_radial)"
  />
  <defs>
    <linearGradient id="paint0_linear" x1="24" y1="70" x2="72" y2="58.1429" gradientUnits="userSpaceOnUse">
      <stop stop-color="#9BA9FF" />
      <stop offset="1" stop-color="#4C6EF5" />
    </linearGradient>
    <linearGradient id="paint1_linear" x1="36" y1="60" x2="60" y2="44.5" gradientUnits="userSpaceOnUse">
      <stop stop-color="#F5F7FF" stop-opacity="0.85" />
      <stop offset="1" stop-color="#A5B9FF" stop-opacity="0.9" />
    </linearGradient>
    <radialGradient id="paint2_radial" cx="0" cy="0" r="1" gradientUnits="userSpaceOnUse" gradientTransform="translate(59 26) rotate(90) scale(4)">
      <stop stop-color="#BFD7FF" />
      <stop offset="1" stop-color="#4C6EF5" stop-opacity="0.8" />
    </radialGradient>
  </defs>
</svg>
